<svg width="301" height="512" viewBox="0 0 301 512" fill="none" xmlns="http://www.w3.org/2000/svg">
<path d="M167.723 80.137V61.793H194.206V26.483H167.723V0H132.413V26.483H105.93V61.793H132.413V80.137C106.213 82.106 83.7377 97.218 69.4277 105.931L70.6197 123.586L79.4477 150.069H123.586H176.552H220.69L229.518 123.586L230.71 105.931C216.398 97.218 193.923 82.105 167.723 80.137Z" fill="#A6A6A6"/>
<path d="M203.035 211.862H97.1035V264.828H203.035V211.862Z" fill="#404040"/>
<path d="M203.035 298.708V282.483H97.1033V298.708C97.1033 317.193 94.1193 335.563 88.2753 353.104C82.4313 370.645 79.4473 380.187 79.4473 398.672V441.38H220.688V398.672C220.688 380.187 217.704 370.644 211.86 353.104C206.018 335.563 203.035 317.193 203.035 298.708Z" fill="#404040"/>
<path d="M282.483 512H17.655C7.901 512 0 504.099 0 494.345V485.517C0 475.763 7.901 467.862 17.655 467.862H282.483C292.237 467.862 300.138 475.763 300.138 485.517V494.345C300.138 504.099 292.237 512 282.483 512Z" fill="#404040"/>
<line x1="71" y1="131.5" x2="231" y2="131.5" stroke="#D3D3D3" stroke-width="19"/>
<path d="M220.689 105.931V141.241H176.551V114.759H123.585V141.241H79.4467V105.931H44.1367V150.069L70.6197 185.379H229.516L255.999 150.069V105.931H220.689Z" fill="#404040"/>
<path d="M238.344 467.862H61.7917C52.0377 467.862 44.1367 459.961 44.1367 450.207C44.1367 440.453 52.0377 432.552 61.7917 432.552H238.344C248.098 432.552 255.999 440.453 255.999 450.207C255.999 459.961 248.098 467.862 238.344 467.862Z" fill="#A6A6A6"/>
<path d="M215.833 290H84.1665C76.8923 290 71 282.168 71 272.5C71 262.832 76.8923 255 84.1665 255H215.833C223.108 255 229 262.832 229 272.5C229 282.168 223.108 290 215.833 290Z" fill="#A6A6A6"/>
<path d="M215.833 213H84.1665C76.8923 213 71 205.168 71 195.5C71 185.832 76.8923 178 84.1665 178H215.833C223.108 178 229 185.832 229 195.5C229 205.168 223.108 213 215.833 213Z" fill="#A6A6A6"/>
<path d="M256.002 450.503C256.002 455.001 253.502 465.001 240.502 468.003C222.614 469.678 175.137 468.003 147.502 468.003C117.465 468.003 78.0011 468.001 60.5011 468.001C47.4999 466 43.4999 455.5 43.9999 450C48.4999 450 93.1018 450.003 147.502 450.003C201.902 450.003 251.502 450.503 256.002 450.503Z" fill="#E1E1E1"/>
<path d="M229 272.51C229 277.068 227.137 287.203 217.45 290.246C204.122 291.943 168.745 290.246 148.153 290.246C125.772 290.246 96.3659 290.244 83.3261 290.244C73.6384 288.216 70.6579 277.574 71.0305 272C74.3836 272 107.618 272.003 148.153 272.003C188.688 272.003 225.647 272.51 229 272.51Z" fill="#E1E1E1"/>
<path d="M229 195.51C229 200.068 227.137 210.203 217.45 213.246C204.122 214.943 168.745 213.246 148.153 213.246C125.772 213.246 96.3659 213.244 83.3261 213.244C73.6384 211.216 70.6579 200.574 71.0305 195C74.3836 195 107.618 195.003 148.153 195.003C188.688 195.003 225.647 195.51 229 195.51Z" fill="#E1E1E1"/>
</svg>
