<svg width="301" height="541" viewBox="0 0 301 541" fill="none" xmlns="http://www.w3.org/2000/svg">
<path d="M71.4336 99.3198C85.7436 90.6068 108.219 75.4948 134.419 73.5258C134.419 73.5258 142.434 72.5027 152.434 72.5258C162.434 72.5489 169.729 73.5258 169.729 73.5258C195.929 75.4938 218.404 90.6068 232.716 99.3198L231.524 116.975L222.696 143.458H178.558H125.592H81.4536L72.6256 116.975L71.4336 99.3198Z" fill="#F3D6B9"/>
<path d="M203.468 240.457H97.5371V293.423H203.468V240.457Z" fill="#E4C39A"/>
<path d="M203.434 284.922H96.4336V248.598C96.4336 209.519 67.3383 162.59 50.2744 143.385C42.78 135.869 30.103 128.354 31.5471 114.576C33.5426 95.5374 51.5243 91.613 60.2644 92.0305C69.0044 92.448 81.4902 104.556 91.4788 104.556C101.467 104.556 115.618 94.5356 121.445 89.5254C123.942 92.0305 137.676 104.556 155.156 104.556C167.143 104.556 181.376 94.5356 185.122 89.5254C191.365 97.0406 204.702 104.556 216.336 104.556C227.971 104.556 236.311 93.283 245.054 93.283C279.015 94.2851 276.684 117.081 271.274 128.354C227.326 169.05 209.941 215.409 204.934 248.598C202.543 264.442 203.434 276.07 203.434 284.922Z" fill="#E4C39A"/>
<path d="M203.469 327.303V311.078H97.5368V327.303C97.5368 345.788 94.5528 364.158 88.7088 381.699C82.8648 399.24 79.8809 408.782 79.8809 427.267V469.975H221.122V427.267C221.122 408.782 218.138 399.239 212.294 381.699C206.452 364.158 203.469 345.788 203.469 327.303Z" fill="#E4C39A"/>
<path d="M282.917 540.595H18.0886C8.33459 540.595 0.433594 532.694 0.433594 522.94V514.112C0.433594 504.358 8.33459 496.457 18.0886 496.457H282.917C292.671 496.457 300.572 504.358 300.572 514.112V522.94C300.572 532.694 292.671 540.595 282.917 540.595Z" fill="#E4C39A"/>
<path d="M238.777 496.456H62.2253C52.4713 496.456 44.5703 488.555 44.5703 478.801C44.5703 469.047 52.4713 461.146 62.2253 461.146H238.777C248.531 461.146 256.432 469.047 256.432 478.801C256.432 488.555 248.531 496.456 238.777 496.456Z" fill="#F3D6B9"/>
<path d="M256.476 479.098C256.476 483.595 253.976 493.595 240.976 496.598C223.088 498.273 175.611 496.598 147.976 496.598C117.94 496.598 78.4757 496.596 60.9757 496.596C47.9745 494.595 43.9745 484.095 44.4745 478.595C48.9745 478.594 93.5764 478.598 147.976 478.598C202.377 478.598 251.976 479.098 256.476 479.098Z" fill="#C2A07D"/>
<path d="M220.417 318H84.5832C77.0788 318 71 310.392 71 301C71 291.608 77.0788 284 84.5832 284H220.417C227.921 284 234 291.608 234 301C234 310.392 227.921 318 220.417 318Z" fill="#F3D6B9"/>
<path d="M234 301.51C234 306.068 232.078 316.203 222.085 319.246C208.334 320.943 171.838 319.246 150.595 319.246C127.505 319.246 97.1686 319.244 83.7162 319.244C73.7219 317.216 70.6471 306.574 71.0315 301C74.4907 301 108.777 301.003 150.595 301.003C192.413 301.003 230.541 301.51 234 301.51Z" fill="#C2A07D"/>
<path d="M220.417 248H84.5832C77.0788 248 71 240.392 71 231C71 221.608 77.0788 214 84.5832 214H220.417C227.921 214 234 221.608 234 231C234 240.392 227.921 248 220.417 248Z" fill="#F3D6B9"/>
<path d="M234 231.51C234 236.068 232.078 246.203 222.085 249.246C208.334 250.943 171.838 249.246 150.595 249.246C127.505 249.246 97.1686 249.244 83.7162 249.244C73.7219 247.216 70.6471 236.574 71.0315 231C74.4907 231 108.777 231.003 150.595 231.003C192.413 231.003 230.541 231.51 234 231.51Z" fill="#C2A07D"/>
<circle cx="152.934" cy="39.0254" r="38.5" fill="#F3D6B9"/>
<path d="M216.336 104.556C227.97 104.556 236.311 93.283 245.054 93.283C267.77 93.9533 274.249 104.375 274.429 114.576H31.5469C33.5424 95.5374 51.5241 91.613 60.2641 92.0305C69.0042 92.448 81.4899 104.556 91.4786 104.556C101.467 104.556 115.618 94.5356 121.444 89.5254C123.942 92.0305 137.676 104.556 155.156 104.556C167.142 104.556 181.376 94.5356 185.122 89.5254C191.365 97.0406 204.702 104.556 216.336 104.556Z" fill="#C2A07D"/>
</svg>
