<svg width="1338" height="1150" viewBox="0 0 1338 1150" fill="none" xmlns="http://www.w3.org/2000/svg">
<path d="M127.001 859.747C127.001 868.584 134.164 875.747 143.001 875.747H287.001C295.837 875.747 303.001 868.584 303.001 859.747C303.001 850.911 295.837 843.747 287.001 843.747H159.001V715.747C159.001 706.911 151.837 699.747 143.001 699.747C134.164 699.747 127.001 706.911 127.001 715.747L127.001 859.747ZM325.434 654.686L131.687 848.434L154.315 871.061L348.062 677.314L325.434 654.686Z" fill="#AFB0B2"/>
<path d="M1193.75 875.747C1202.58 875.747 1209.75 868.584 1209.75 859.747V715.747C1209.75 706.911 1202.58 699.747 1193.75 699.747C1184.91 699.747 1177.75 706.911 1177.75 715.747V843.747H1049.75C1040.91 843.747 1033.75 850.911 1033.75 859.747C1033.75 868.584 1040.91 875.747 1049.75 875.747H1193.75ZM988.686 677.314L1182.43 871.061L1205.06 848.434L1011.31 654.686L988.686 677.314Z" fill="#AFB0B2"/>
<rect x="359" width="641" height="640" fill="#7A7B7C"/>
<rect x="440" width="80" height="80" fill="#CFCFD0"/>
<rect x="440" y="160" width="80" height="80" fill="#CFCFD0"/>
<rect x="440" y="320" width="80" height="80" fill="#CFCFD0"/>
<rect x="440" y="480" width="80" height="80" fill="#CFCFD0"/>
<rect x="360" y="80" width="80" height="80" fill="#CFCFD0"/>
<rect x="360" y="240" width="80" height="80" fill="#CFCFD0"/>
<rect x="360" y="400" width="80" height="80" fill="#CFCFD0"/>
<rect x="360" y="560" width="80" height="80" fill="#CFCFD0"/>
<rect x="600" width="80" height="80" fill="#CFCFD0"/>
<rect x="600" y="160" width="80" height="80" fill="#CFCFD0"/>
<rect x="600" y="320" width="80" height="80" fill="#CFCFD0"/>
<rect x="600" y="480" width="80" height="80" fill="#CFCFD0"/>
<rect x="520" y="80" width="80" height="80" fill="#CFCFD0"/>
<rect x="520" y="240" width="80" height="80" fill="#CFCFD0"/>
<rect x="520" y="400" width="80" height="80" fill="#CFCFD0"/>
<rect x="520" y="560" width="80" height="80" fill="#CFCFD0"/>
<rect x="760" width="80" height="80" fill="#CFCFD0"/>
<rect x="760" y="160" width="80" height="80" fill="#CFCFD0"/>
<rect x="760" y="320" width="80" height="80" fill="#CFCFD0"/>
<rect x="760" y="480" width="80" height="80" fill="#CFCFD0"/>
<rect x="680" y="80" width="80" height="80" fill="#CFCFD0"/>
<rect x="680" y="240" width="80" height="80" fill="#CFCFD0"/>
<rect x="680" y="400" width="80" height="80" fill="#CFCFD0"/>
<rect x="680" y="560" width="80" height="80" fill="#CFCFD0"/>
<rect x="920" width="80" height="80" fill="#CFCFD0"/>
<rect x="920" y="160" width="80" height="80" fill="#CFCFD0"/>
<rect x="920" y="320" width="80" height="80" fill="#CFCFD0"/>
<rect x="920" y="480" width="80" height="80" fill="#CFCFD0"/>
<rect x="840" y="80" width="80" height="80" fill="#CFCFD0"/>
<rect x="840" y="240" width="80" height="80" fill="#CFCFD0"/>
<rect x="840" y="400" width="80" height="80" fill="#CFCFD0"/>
<rect x="840" y="560" width="80" height="80" fill="#CFCFD0"/>
<path d="M48.7969 1016.14C48.7969 1003.02 50.3906 992.562 53.5781 984.781C56.7656 977 62.5781 969.359 71.0156 961.859C79.5469 954.266 85.2188 948.125 88.0312 943.438C90.8438 938.656 92.25 933.641 92.25 928.391C92.25 912.547 84.9375 904.625 70.3125 904.625C63.375 904.625 57.7969 906.781 53.5781 911.094C49.4531 915.312 47.2969 921.172 47.1094 928.672H6.32812C6.51562 910.766 12.2813 896.75 23.625 886.625C35.0625 876.5 50.625 871.438 70.3125 871.438C90.1875 871.438 105.609 876.266 116.578 885.922C127.547 895.484 133.031 909.031 133.031 926.562C133.031 934.531 131.25 942.078 127.688 949.203C124.125 956.234 117.891 964.062 108.984 972.688L97.5938 983.516C90.4688 990.359 86.3906 998.375 85.3594 1007.56L84.7969 1016.14H48.7969ZM44.7188 1059.31C44.7188 1053.03 46.8281 1047.88 51.0469 1043.84C55.3594 1039.72 60.8438 1037.66 67.5 1037.66C74.1562 1037.66 79.5938 1039.72 83.8125 1043.84C88.125 1047.88 90.2812 1053.03 90.2812 1059.31C90.2812 1065.5 88.1719 1070.61 83.9531 1074.64C79.8281 1078.67 74.3438 1080.69 67.5 1080.69C60.6562 1080.69 55.125 1078.67 50.9062 1074.64C46.7812 1070.61 44.7188 1065.5 44.7188 1059.31Z" fill="#AFB0B2"/>
<path d="M1242.8 1016.14C1242.8 1003.02 1244.39 992.562 1247.58 984.781C1250.77 977 1256.58 969.359 1265.02 961.859C1273.55 954.266 1279.22 948.125 1282.03 943.438C1284.84 938.656 1286.25 933.641 1286.25 928.391C1286.25 912.547 1278.94 904.625 1264.31 904.625C1257.38 904.625 1251.8 906.781 1247.58 911.094C1243.45 915.312 1241.3 921.172 1241.11 928.672H1200.33C1200.52 910.766 1206.28 896.75 1217.62 886.625C1229.06 876.5 1244.62 871.438 1264.31 871.438C1284.19 871.438 1299.61 876.266 1310.58 885.922C1321.55 895.484 1327.03 909.031 1327.03 926.562C1327.03 934.531 1325.25 942.078 1321.69 949.203C1318.12 956.234 1311.89 964.062 1302.98 972.688L1291.59 983.516C1284.47 990.359 1280.39 998.375 1279.36 1007.56L1278.8 1016.14H1242.8ZM1238.72 1059.31C1238.72 1053.03 1240.83 1047.88 1245.05 1043.84C1249.36 1039.72 1254.84 1037.66 1261.5 1037.66C1268.16 1037.66 1273.59 1039.72 1277.81 1043.84C1282.12 1047.88 1284.28 1053.03 1284.28 1059.31C1284.28 1065.5 1282.17 1070.61 1277.95 1074.64C1273.83 1078.67 1268.34 1080.69 1261.5 1080.69C1254.66 1080.69 1249.12 1078.67 1244.91 1074.64C1240.78 1070.61 1238.72 1065.5 1238.72 1059.31Z" fill="#AFB0B2"/>
</svg>
