<svg width="495" height="590" viewBox="0 0 495 590" fill="none" xmlns="http://www.w3.org/2000/svg">
<path d="M138.327 384.587H66.1562V420.672H138.327V384.587Z" fill="#E4C39A"/>
<circle cx="103.215" cy="316.844" r="54.8443" fill="#E4C39A"/>
<path d="M138.327 443.754V432.7H66.1559V443.754C66.1559 456.348 64.1229 468.863 60.1414 480.814C56.1599 492.765 54.127 499.266 54.127 511.859V540.956H150.354V511.859C150.354 499.266 148.321 492.764 144.339 480.814C140.359 468.863 138.327 456.348 138.327 443.754Z" fill="#E4C39A"/>
<path d="M192.455 589.07H12.0283C5.38292 589.07 0 583.687 0 577.042V571.027C0 564.382 5.38292 558.999 12.0283 558.999H192.455C199.1 558.999 204.483 564.382 204.483 571.027V577.042C204.483 583.687 199.1 589.07 192.455 589.07Z" fill="#E4C39A"/>
<path d="M148.833 438H57.1666C52.1022 438 48 432.63 48 426C48 419.37 52.1022 414 57.1666 414H148.833C153.898 414 158 419.37 158 426C158 432.63 153.898 438 148.833 438Z" fill="#F3D6B9"/>
<path d="M148.833 390H57.1666C52.1022 390 48 384.63 48 378C48 371.37 52.1022 366 57.1666 366H148.833C153.898 366 158 371.37 158 378C158 384.63 153.898 390 148.833 390Z" fill="#F3D6B9"/>
<path d="M158 426.349C158 429.468 156.703 436.402 149.959 438.484C140.68 439.645 116.05 438.484 101.714 438.484C86.1324 438.484 65.6598 438.482 56.5815 438.482C49.8369 437.095 47.7619 429.814 48.0212 426C50.3557 426 73.4935 426.002 101.714 426.002C129.935 426.002 155.666 426.349 158 426.349Z" fill="#C2A07D"/>
<path d="M158 378.349C158 381.468 156.703 388.402 149.959 390.484C140.68 391.645 116.05 390.484 101.714 390.484C86.1324 390.484 65.6598 390.482 56.5815 390.482C49.8369 389.095 47.7619 381.814 48.0212 378C50.3557 378 73.4935 378.002 101.714 378.002C129.935 378.002 155.666 378.349 158 378.349Z" fill="#C2A07D"/>
<path d="M162.383 558.998H42.0986C35.4532 558.998 30.0703 553.615 30.0703 546.97C30.0703 540.324 35.4532 534.941 42.0986 534.941H162.383C169.028 534.941 174.411 540.324 174.411 546.97C174.411 553.615 169.028 558.998 162.383 558.998Z" fill="#F3D6B9"/>
<path d="M174.441 547.172C174.441 550.236 172.737 557.049 163.88 559.094C151.693 560.236 119.348 559.094 100.52 559.094C80.0561 559.094 53.1694 559.093 41.2467 559.093C32.389 557.73 29.6638 550.576 30.0044 546.829C33.0703 546.829 63.4574 546.831 100.52 546.831C137.582 546.831 171.375 547.172 174.441 547.172Z" fill="#C2A07D"/>
<path d="M397.035 226.932H291.104V279.898H397.035V226.932Z" fill="#7B7C7E"/>
<path d="M397 271.397H290V235.073C290 195.994 260.905 149.065 243.841 129.859C236.346 122.344 223.669 114.829 225.113 101.051C227.109 82.012 245.091 78.0876 253.831 78.5051C262.571 78.9226 275.057 91.0305 285.045 91.0305C295.034 91.0305 309.184 81.0102 315.011 76C317.508 78.5051 331.243 91.0305 348.723 91.0305C360.709 91.0305 374.943 81.0102 378.688 76C384.931 83.5153 398.269 91.0305 409.903 91.0305C421.537 91.0305 429.878 79.7576 438.62 79.7576C472.581 80.7597 470.251 103.556 464.84 114.829C420.893 155.524 403.507 201.883 398.5 235.073C396.11 250.916 397 262.544 397 271.397Z" fill="#7B7C7E"/>
<path d="M397.035 313.778V297.553H291.103V313.778C291.103 332.263 288.119 350.633 282.275 368.174C276.431 385.715 273.447 395.257 273.447 413.742V456.45H414.688V413.742C414.688 395.257 411.704 385.714 405.86 368.174C400.018 350.633 397.035 332.263 397.035 313.778Z" fill="#7B7C7E"/>
<path d="M476.483 527.07H211.655C201.901 527.07 194 519.169 194 509.415V500.587C194 490.833 201.901 482.932 211.655 482.932H476.483C486.237 482.932 494.138 490.833 494.138 500.587V509.415C494.138 519.169 486.237 527.07 476.483 527.07Z" fill="#7B7C7E"/>
<path d="M432.344 482.931H255.792C246.038 482.931 238.137 475.03 238.137 465.276C238.137 455.522 246.038 447.621 255.792 447.621H432.344C442.098 447.621 449.999 455.522 449.999 465.276C449.999 475.03 442.098 482.931 432.344 482.931Z" fill="#7B7C7E"/>
<path d="M410.667 305H277.333C269.967 305 264 297.168 264 287.5C264 277.832 269.967 270 277.333 270H410.667C418.033 270 424 277.832 424 287.5C424 297.168 418.033 305 410.667 305Z" fill="#7B7C7E"/>
<path d="M411.667 235H278.333C270.967 235 265 227.168 265 217.5C265 207.832 270.967 200 278.333 200H411.667C419.033 200 425 207.832 425 217.5C425 227.168 419.033 235 411.667 235Z" fill="#7B7C7E"/>
<path d="M450.043 465.572C450.043 470.07 447.543 480.07 434.543 483.072C416.655 484.747 369.178 483.072 341.543 483.072C311.506 483.072 272.042 483.07 254.542 483.07C241.541 481.069 237.541 470.569 238.041 465.069C242.541 465.069 287.143 465.072 341.543 465.072C395.943 465.072 445.543 465.572 450.043 465.572Z" fill="#EAEAEA"/>
<path d="M424 287.51C424 292.068 422.114 302.203 412.304 305.246C398.807 306.943 362.982 305.246 342.13 305.246C319.465 305.246 289.687 305.244 276.482 305.244C266.672 303.216 263.654 292.574 264.031 287C267.426 287 301.081 287.003 342.13 287.003C383.178 287.003 420.604 287.51 424 287.51Z" fill="#EAEAEA"/>
<path d="M425 217.51C425 222.068 423.114 232.203 413.304 235.246C399.807 236.943 363.982 235.246 343.13 235.246C320.465 235.246 290.687 235.244 277.482 235.244C267.672 233.216 264.654 222.574 265.031 217C268.426 217 302.081 217.003 343.13 217.003C384.178 217.003 421.604 217.51 425 217.51Z" fill="#EAEAEA"/>
<circle cx="346.5" cy="38.5" r="38.5" fill="#7B7C7E"/>
</svg>
