<svg width="641" height="640" viewBox="0 0 641 640" fill="none" xmlns="http://www.w3.org/2000/svg">
<rect width="641" height="640" fill="white"/>
<rect x="81" width="80" height="80" fill="#434141"/>
<rect x="81" y="160" width="80" height="80" fill="#434141"/>
<rect x="81" y="320" width="80" height="80" fill="#434141"/>
<rect x="81" y="480" width="80" height="80" fill="#434141"/>
<rect x="1" y="80" width="80" height="80" fill="#434141"/>
<rect x="1" y="240" width="80" height="80" fill="#434141"/>
<rect x="1" y="400" width="80" height="80" fill="#434141"/>
<rect x="1" y="560" width="80" height="80" fill="#434141"/>
<rect x="241" width="80" height="80" fill="#434141"/>
<rect x="241" y="160" width="80" height="80" fill="#434141"/>
<rect x="241" y="320" width="80" height="80" fill="#434141"/>
<rect x="241" y="480" width="80" height="80" fill="#434141"/>
<rect x="161" y="80" width="80" height="80" fill="#434141"/>
<rect x="161" y="240" width="80" height="80" fill="#434141"/>
<rect x="161" y="400" width="80" height="80" fill="#434141"/>
<rect x="161" y="560" width="80" height="80" fill="#434141"/>
<rect x="401" width="80" height="80" fill="#434141"/>
<rect x="401" y="160" width="80" height="80" fill="#434141"/>
<rect x="401" y="320" width="80" height="80" fill="#434141"/>
<rect x="401" y="480" width="80" height="80" fill="#434141"/>
<rect x="321" y="80" width="80" height="80" fill="#434141"/>
<rect x="321" y="240" width="80" height="80" fill="#434141"/>
<rect x="321" y="400" width="80" height="80" fill="#434141"/>
<rect x="321" y="560" width="80" height="80" fill="#434141"/>
<rect x="561" width="80" height="80" fill="#434141"/>
<rect x="561" y="160" width="80" height="80" fill="#434141"/>
<rect x="561" y="320" width="80" height="80" fill="#434141"/>
<rect x="561" y="480" width="80" height="80" fill="#434141"/>
<rect x="481" y="80" width="80" height="80" fill="#434141"/>
<rect x="481" y="240" width="80" height="80" fill="#434141"/>
<rect x="481" y="400" width="80" height="80" fill="#434141"/>
<rect x="481" y="560" width="80" height="80" fill="#434141"/>
<path d="M290.824 483.634H271.611V493.24H290.824V483.634Z" fill="#E4C39A"/>
<circle cx="281.477" cy="465.6" r="14.6002" fill="#E4C39A"/>
<path d="M290.825 499.385V496.442H271.612V499.385C271.612 502.738 271.071 506.069 270.011 509.251C268.951 512.432 268.41 514.163 268.41 517.515V525.261H294.027V517.515C294.027 514.163 293.486 512.432 292.426 509.251C291.366 506.069 290.825 502.738 290.825 499.385Z" fill="#E4C39A"/>
<path d="M305.234 538.07H257.202C255.433 538.07 254 536.637 254 534.868V533.267C254 531.497 255.433 530.064 257.202 530.064H305.234C307.003 530.064 308.436 531.497 308.436 533.267V534.868C308.436 536.637 307.003 538.07 305.234 538.07Z" fill="#E4C39A"/>
<path d="M295.628 478.831H266.809V485.235H295.628V478.831Z" fill="#F3D6B9"/>
<path d="M295.628 491.639H266.809V498.043H295.628V491.639Z" fill="#F3D6B9"/>
<path d="M297.229 530.064H265.208C263.439 530.064 262.006 528.631 262.006 526.862C262.006 525.093 263.439 523.66 265.208 523.66H297.229C298.998 523.66 300.431 525.093 300.431 526.862C300.431 528.631 298.998 530.064 297.229 530.064Z" fill="#F3D6B9"/>
<path d="M300.438 526.916C300.438 527.732 299.985 529.546 297.627 530.09C294.383 530.394 285.772 530.09 280.76 530.09C275.312 530.09 268.155 530.09 264.981 530.09C262.623 529.727 261.897 527.823 261.988 526.825C262.804 526.825 270.893 526.826 280.76 526.826C290.626 526.826 299.622 526.916 300.438 526.916Z" fill="#C2A07D"/>
<line x1="266.777" y1="496.487" x2="295.621" y2="496.487" stroke="#C2A07D" stroke-width="3"/>
<line x1="266.841" y1="483.841" x2="295.605" y2="483.791" stroke="#C2A07D" stroke-width="3"/>
<path d="M210.824 483.634H191.611V493.24H210.824V483.634Z" fill="#E4C39A"/>
<circle cx="201.477" cy="465.6" r="14.6002" fill="#E4C39A"/>
<path d="M210.825 499.385V496.442H191.612V499.385C191.612 502.738 191.071 506.069 190.011 509.251C188.951 512.432 188.41 514.163 188.41 517.515V525.261H214.027V517.515C214.027 514.163 213.486 512.432 212.426 509.251C211.366 506.069 210.825 502.738 210.825 499.385Z" fill="#E4C39A"/>
<path d="M225.234 538.07H177.202C175.433 538.07 174 536.637 174 534.868V533.267C174 531.497 175.433 530.064 177.202 530.064H225.234C227.003 530.064 228.436 531.497 228.436 533.267V534.868C228.436 536.637 227.003 538.07 225.234 538.07Z" fill="#E4C39A"/>
<path d="M215.628 478.831H186.809V485.235H215.628V478.831Z" fill="#F3D6B9"/>
<path d="M215.628 491.639H186.809V498.043H215.628V491.639Z" fill="#F3D6B9"/>
<path d="M217.229 530.064H185.208C183.439 530.064 182.006 528.631 182.006 526.862C182.006 525.093 183.439 523.66 185.208 523.66H217.229C218.998 523.66 220.431 525.093 220.431 526.862C220.431 528.631 218.998 530.064 217.229 530.064Z" fill="#F3D6B9"/>
<path d="M220.438 526.916C220.438 527.732 219.985 529.546 217.627 530.09C214.383 530.394 205.772 530.09 200.76 530.09C195.312 530.09 188.155 530.09 184.981 530.09C182.623 529.727 181.897 527.823 181.988 526.825C182.804 526.825 190.893 526.826 200.76 526.826C210.626 526.826 219.622 526.916 220.438 526.916Z" fill="#C2A07D"/>
<line x1="186.777" y1="496.487" x2="215.621" y2="496.487" stroke="#C2A07D" stroke-width="3"/>
<line x1="186.841" y1="483.841" x2="215.605" y2="483.791" stroke="#C2A07D" stroke-width="3"/>
<path d="M130.824 483.634H111.611V493.24H130.824V483.634Z" fill="#E4C39A"/>
<circle cx="121.477" cy="465.6" r="14.6002" fill="#E4C39A"/>
<path d="M130.825 499.385V496.442H111.612V499.385C111.612 502.738 111.071 506.069 110.011 509.251C108.951 512.432 108.41 514.163 108.41 517.515V525.261H134.027V517.515C134.027 514.163 133.486 512.432 132.426 509.251C131.366 506.069 130.825 502.738 130.825 499.385Z" fill="#E4C39A"/>
<path d="M145.234 538.07H97.2021C95.433 538.07 94 536.637 94 534.868V533.267C94 531.497 95.433 530.064 97.2021 530.064H145.234C147.003 530.064 148.436 531.497 148.436 533.267V534.868C148.436 536.637 147.003 538.07 145.234 538.07Z" fill="#E4C39A"/>
<path d="M135.628 478.831H106.809V485.235H135.628V478.831Z" fill="#F3D6B9"/>
<path d="M135.628 491.639H106.809V498.043H135.628V491.639Z" fill="#F3D6B9"/>
<path d="M137.229 530.064H105.208C103.439 530.064 102.006 528.631 102.006 526.862C102.006 525.093 103.439 523.66 105.208 523.66H137.229C138.998 523.66 140.431 525.093 140.431 526.862C140.431 528.631 138.998 530.064 137.229 530.064Z" fill="#F3D6B9"/>
<path d="M140.438 526.916C140.438 527.732 139.985 529.546 137.627 530.09C134.383 530.394 125.772 530.09 120.76 530.09C115.312 530.09 108.155 530.09 104.981 530.09C102.623 529.727 101.897 527.823 101.988 526.825C102.804 526.825 110.893 526.826 120.76 526.826C130.626 526.826 139.622 526.916 140.438 526.916Z" fill="#C2A07D"/>
<line x1="106.777" y1="496.487" x2="135.621" y2="496.487" stroke="#C2A07D" stroke-width="3"/>
<line x1="106.841" y1="483.841" x2="135.605" y2="483.791" stroke="#C2A07D" stroke-width="3"/>
<path d="M50.8239 483.634H31.6113V493.24H50.8239V483.634Z" fill="#E4C39A"/>
<circle cx="41.4771" cy="465.6" r="14.6002" fill="#E4C39A"/>
<path d="M50.8252 499.385V496.442H31.6124V499.385C31.6124 502.738 31.0712 506.069 30.0113 509.251C28.9514 512.432 28.4102 514.163 28.4102 517.515V525.261H54.0269V517.515C54.0269 514.163 53.4857 512.432 52.4257 509.251C51.3662 506.069 50.8252 502.738 50.8252 499.385Z" fill="#E4C39A"/>
<path d="M65.2336 538.07H17.2021C15.433 538.07 14 536.637 14 534.868V533.267C14 531.497 15.433 530.064 17.2021 530.064H65.2336C67.0027 530.064 68.4357 531.497 68.4357 533.267V534.868C68.4357 536.637 67.0027 538.07 65.2336 538.07Z" fill="#E4C39A"/>
<path d="M55.6275 478.831H26.8086V485.235H55.6275V478.831Z" fill="#F3D6B9"/>
<path d="M55.6275 491.639H26.8086V498.043H55.6275V491.639Z" fill="#F3D6B9"/>
<path d="M57.2289 530.064H25.2079C23.4389 530.064 22.0059 528.631 22.0059 526.862C22.0059 525.093 23.4389 523.66 25.2079 523.66H57.2289C58.998 523.66 60.431 525.093 60.431 526.862C60.431 528.631 58.998 530.064 57.2289 530.064Z" fill="#F3D6B9"/>
<path d="M60.4384 526.916C60.4384 527.732 59.985 529.546 57.6272 530.09C54.3829 530.394 45.772 530.09 40.7599 530.09C35.3122 530.09 28.1547 530.09 24.9807 530.09C22.6227 529.727 21.8972 527.823 21.9879 526.825C22.8041 526.825 30.8934 526.826 40.7599 526.826C50.6264 526.826 59.6223 526.916 60.4384 526.916Z" fill="#C2A07D"/>
<line x1="26.7773" y1="496.487" x2="55.6213" y2="496.487" stroke="#C2A07D" stroke-width="3"/>
<line x1="26.8411" y1="483.841" x2="55.6052" y2="483.791" stroke="#C2A07D" stroke-width="3"/>
<path d="M370.824 323.634H351.611V333.24H370.824V323.634Z" fill="#E4C39A"/>
<circle cx="361.477" cy="305.6" r="14.6002" fill="#E4C39A"/>
<path d="M370.825 339.385V336.442H351.612V339.385C351.612 342.738 351.071 346.069 350.011 349.251C348.951 352.432 348.41 354.163 348.41 357.515V365.261H374.027V357.515C374.027 354.163 373.486 352.432 372.426 349.251C371.366 346.069 370.825 342.738 370.825 339.385Z" fill="#E4C39A"/>
<path d="M385.234 378.07H337.202C335.433 378.07 334 376.637 334 374.868V373.267C334 371.497 335.433 370.064 337.202 370.064H385.234C387.003 370.064 388.436 371.497 388.436 373.267V374.868C388.436 376.637 387.003 378.07 385.234 378.07Z" fill="#E4C39A"/>
<path d="M375.628 318.831H346.809V325.235H375.628V318.831Z" fill="#F3D6B9"/>
<path d="M375.628 331.639H346.809V338.043H375.628V331.639Z" fill="#F3D6B9"/>
<path d="M377.229 370.064H345.208C343.439 370.064 342.006 368.631 342.006 366.862C342.006 365.093 343.439 363.66 345.208 363.66H377.229C378.998 363.66 380.431 365.093 380.431 366.862C380.431 368.631 378.998 370.064 377.229 370.064Z" fill="#F3D6B9"/>
<path d="M380.438 366.916C380.438 367.732 379.985 369.546 377.627 370.09C374.383 370.394 365.772 370.09 360.76 370.09C355.312 370.09 348.155 370.09 344.981 370.09C342.623 369.727 341.897 367.823 341.988 366.825C342.804 366.825 350.893 366.826 360.76 366.826C370.626 366.826 379.622 366.916 380.438 366.916Z" fill="#C2A07D"/>
<line x1="346.777" y1="336.487" x2="375.621" y2="336.487" stroke="#C2A07D" stroke-width="3"/>
<line x1="346.841" y1="323.841" x2="375.605" y2="323.791" stroke="#C2A07D" stroke-width="3"/>
<path d="M450.824 483.634H431.611V493.24H450.824V483.634Z" fill="#E4C39A"/>
<circle cx="441.477" cy="465.6" r="14.6002" fill="#E4C39A"/>
<path d="M450.825 499.385V496.442H431.612V499.385C431.612 502.738 431.071 506.069 430.011 509.251C428.951 512.432 428.41 514.163 428.41 517.515V525.261H454.027V517.515C454.027 514.163 453.486 512.432 452.426 509.251C451.366 506.069 450.825 502.738 450.825 499.385Z" fill="#E4C39A"/>
<path d="M465.234 538.07H417.202C415.433 538.07 414 536.637 414 534.868V533.267C414 531.497 415.433 530.064 417.202 530.064H465.234C467.003 530.064 468.436 531.497 468.436 533.267V534.868C468.436 536.637 467.003 538.07 465.234 538.07Z" fill="#E4C39A"/>
<path d="M455.628 478.831H426.809V485.235H455.628V478.831Z" fill="#F3D6B9"/>
<path d="M455.628 491.639H426.809V498.043H455.628V491.639Z" fill="#F3D6B9"/>
<path d="M457.229 530.064H425.208C423.439 530.064 422.006 528.631 422.006 526.862C422.006 525.093 423.439 523.66 425.208 523.66H457.229C458.998 523.66 460.431 525.093 460.431 526.862C460.431 528.631 458.998 530.064 457.229 530.064Z" fill="#F3D6B9"/>
<path d="M460.438 526.916C460.438 527.732 459.985 529.546 457.627 530.09C454.383 530.394 445.772 530.09 440.76 530.09C435.312 530.09 428.155 530.09 424.981 530.09C422.623 529.727 421.897 527.823 421.988 526.825C422.804 526.825 430.893 526.826 440.76 526.826C450.626 526.826 459.622 526.916 460.438 526.916Z" fill="#C2A07D"/>
<line x1="426.777" y1="496.487" x2="455.621" y2="496.487" stroke="#C2A07D" stroke-width="3"/>
<line x1="426.841" y1="483.841" x2="455.605" y2="483.791" stroke="#C2A07D" stroke-width="3"/>
<path d="M530.824 483.634H511.611V493.24H530.824V483.634Z" fill="#E4C39A"/>
<circle cx="521.477" cy="465.6" r="14.6002" fill="#E4C39A"/>
<path d="M530.825 499.385V496.442H511.612V499.385C511.612 502.738 511.071 506.069 510.011 509.251C508.951 512.432 508.41 514.163 508.41 517.515V525.261H534.027V517.515C534.027 514.163 533.486 512.432 532.426 509.251C531.366 506.069 530.825 502.738 530.825 499.385Z" fill="#E4C39A"/>
<path d="M545.234 538.07H497.202C495.433 538.07 494 536.637 494 534.868V533.267C494 531.497 495.433 530.064 497.202 530.064H545.234C547.003 530.064 548.436 531.497 548.436 533.267V534.868C548.436 536.637 547.003 538.07 545.234 538.07Z" fill="#E4C39A"/>
<path d="M535.628 478.831H506.809V485.235H535.628V478.831Z" fill="#F3D6B9"/>
<path d="M535.628 491.639H506.809V498.043H535.628V491.639Z" fill="#F3D6B9"/>
<path d="M537.229 530.064H505.208C503.439 530.064 502.006 528.631 502.006 526.862C502.006 525.093 503.439 523.66 505.208 523.66H537.229C538.998 523.66 540.431 525.093 540.431 526.862C540.431 528.631 538.998 530.064 537.229 530.064Z" fill="#F3D6B9"/>
<path d="M540.438 526.916C540.438 527.732 539.985 529.546 537.627 530.09C534.383 530.394 525.772 530.09 520.76 530.09C515.312 530.09 508.155 530.09 504.981 530.09C502.623 529.727 501.897 527.823 501.988 526.825C502.804 526.825 510.893 526.826 520.76 526.826C530.626 526.826 539.622 526.916 540.438 526.916Z" fill="#C2A07D"/>
<line x1="506.777" y1="496.487" x2="535.621" y2="496.487" stroke="#C2A07D" stroke-width="3"/>
<line x1="506.841" y1="483.841" x2="535.605" y2="483.791" stroke="#C2A07D" stroke-width="3"/>
<path d="M610.824 483.634H591.611V493.24H610.824V483.634Z" fill="#E4C39A"/>
<circle cx="601.477" cy="465.6" r="14.6002" fill="#E4C39A"/>
<path d="M610.825 499.385V496.442H591.612V499.385C591.612 502.738 591.071 506.069 590.011 509.251C588.951 512.432 588.41 514.163 588.41 517.515V525.261H614.027V517.515C614.027 514.163 613.486 512.432 612.426 509.251C611.366 506.069 610.825 502.738 610.825 499.385Z" fill="#E4C39A"/>
<path d="M625.234 538.07H577.202C575.433 538.07 574 536.637 574 534.868V533.267C574 531.497 575.433 530.064 577.202 530.064H625.234C627.003 530.064 628.436 531.497 628.436 533.267V534.868C628.436 536.637 627.003 538.07 625.234 538.07Z" fill="#E4C39A"/>
<path d="M615.628 478.831H586.809V485.235H615.628V478.831Z" fill="#F3D6B9"/>
<path d="M615.628 491.639H586.809V498.043H615.628V491.639Z" fill="#F3D6B9"/>
<path d="M617.229 530.064H585.208C583.439 530.064 582.006 528.631 582.006 526.862C582.006 525.093 583.439 523.66 585.208 523.66H617.229C618.998 523.66 620.431 525.093 620.431 526.862C620.431 528.631 618.998 530.064 617.229 530.064Z" fill="#F3D6B9"/>
<path d="M620.438 526.916C620.438 527.732 619.985 529.546 617.627 530.09C614.383 530.394 605.772 530.09 600.76 530.09C595.312 530.09 588.155 530.09 584.981 530.09C582.623 529.727 581.897 527.823 581.988 526.825C582.804 526.825 590.893 526.826 600.76 526.826C610.626 526.826 619.622 526.916 620.438 526.916Z" fill="#C2A07D"/>
<line x1="586.777" y1="496.487" x2="615.621" y2="496.487" stroke="#C2A07D" stroke-width="3"/>
<line x1="586.841" y1="483.841" x2="615.605" y2="483.791" stroke="#C2A07D" stroke-width="3"/>
</svg>
