<svg width="301" height="407" viewBox="0 0 301 407" fill="none" xmlns="http://www.w3.org/2000/svg">
<path d="M203.035 105.932H97.1035V158.898H203.035V105.932Z" fill="#E4C39A"/>
<path d="M203.035 192.778V176.553H97.1033V192.778C97.1033 211.263 94.1193 229.633 88.2753 247.174C82.4313 264.715 79.4473 274.257 79.4473 292.742V335.45H220.688V292.742C220.688 274.257 217.704 264.714 211.86 247.174C206.018 229.633 203.035 211.263 203.035 192.778Z" fill="#E4C39A"/>
<path d="M282.483 406.07H17.655C7.901 406.07 0 398.169 0 388.415V379.587C0 369.833 7.901 361.932 17.655 361.932H282.483C292.237 361.932 300.138 369.833 300.138 379.587V388.415C300.138 398.169 292.237 406.07 282.483 406.07Z" fill="#E4C39A"/>
<path d="M216.667 184H83.3332C75.9669 184 70 176.168 70 166.5C70 156.832 75.9669 149 83.3332 149H216.667C224.033 149 230 156.832 230 166.5C230 176.168 224.033 184 216.667 184Z" fill="#F3D6B9"/>
<path d="M230 166.51C230 171.068 228.114 181.203 218.304 184.246C204.807 185.943 168.982 184.246 148.13 184.246C125.465 184.246 95.687 184.244 82.4821 184.244C72.6718 182.216 69.6536 171.574 70.0309 166C73.4264 166 107.081 166.003 148.13 166.003C189.178 166.003 226.604 166.51 230 166.51Z" fill="#C2A07D"/>
<path d="M238.344 361.931H61.7917C52.0377 361.931 44.1367 354.03 44.1367 344.276C44.1367 334.522 52.0377 326.621 61.7917 326.621H238.344C248.098 326.621 255.999 334.522 255.999 344.276C255.999 354.03 248.098 361.931 238.344 361.931Z" fill="#F3D6B9"/>
<path d="M256.043 344.572C256.043 349.07 253.543 359.07 240.543 362.072C222.655 363.747 175.178 362.072 147.543 362.072C117.506 362.072 78.0422 362.07 60.5422 362.07C47.5409 360.069 43.5409 349.569 44.0409 344.069C48.5409 344.069 93.1428 344.072 147.543 344.072C201.943 344.072 251.543 344.572 256.043 344.572Z" fill="#C2A07D"/>
<line x1="79" y1="26.5693" x2="239" y2="26.5693" stroke="#C2A07D" stroke-width="19"/>
<path d="M220.689 0V35.31H176.551V8.828H123.585V35.31H79.4467V0H44.1367V44.138L70.6197 79.448H229.516L255.999 44.138V0H220.689Z" fill="#E4C39A"/>
<path d="M216.667 110H83.3332C75.9669 110 70 102.168 70 92.5C70 82.8316 75.9669 75 83.3332 75H216.667C224.033 75 230 82.8316 230 92.5C230 102.168 224.033 110 216.667 110Z" fill="#F3D6B9"/>
<path d="M230 92.5099C230 97.0681 228.114 107.203 218.304 110.246C204.807 111.943 168.982 110.246 148.13 110.246C125.465 110.246 95.687 110.244 82.4821 110.244C72.6718 108.216 69.6536 97.5741 70.0309 92C73.4264 91.9997 107.081 92.003 148.13 92.003C189.178 92.003 226.604 92.5097 230 92.5099Z" fill="#C2A07D"/>
</svg>
