<svg width="301" height="512" viewBox="0 0 301 512" fill="none" xmlns="http://www.w3.org/2000/svg">
<path d="M167.723 80.137V61.793H194.206V26.483H167.723V0H132.413V26.483H105.93V61.793H132.413V80.137C106.213 82.106 83.7377 97.218 69.4277 105.931L70.6197 123.586L79.4477 150.069H123.586H176.552H220.69L229.518 123.586L230.71 105.931C216.398 97.218 193.923 82.105 167.723 80.137Z" fill="#F3D6B9"/>
<path d="M203.035 211.862H97.1035V264.828H203.035V211.862Z" fill="#E4C39A"/>
<path d="M203.035 298.708V282.483H97.1033V298.708C97.1033 317.193 94.1193 335.563 88.2753 353.104C82.4313 370.645 79.4473 380.187 79.4473 398.672V441.38H220.688V398.672C220.688 380.187 217.704 370.644 211.86 353.104C206.018 335.563 203.035 317.193 203.035 298.708Z" fill="#E4C39A"/>
<path d="M282.483 512H17.655C7.901 512 0 504.099 0 494.345V485.517C0 475.763 7.901 467.862 17.655 467.862H282.483C292.237 467.862 300.138 475.763 300.138 485.517V494.345C300.138 504.099 292.237 512 282.483 512Z" fill="#E4C39A"/>
<path d="M238.344 467.862H61.7917C52.0377 467.862 44.1367 459.961 44.1367 450.207C44.1367 440.453 52.0377 432.552 61.7917 432.552H238.344C248.098 432.552 255.999 440.453 255.999 450.207C255.999 459.961 248.098 467.862 238.344 467.862Z" fill="#F3D6B9"/>
<path d="M215.667 290H82.3332C74.9669 290 69 282.168 69 272.5C69 262.832 74.9669 255 82.3332 255H215.667C223.033 255 229 262.832 229 272.5C229 282.168 223.033 290 215.667 290Z" fill="#F3D6B9"/>
<path d="M256.043 450.503C256.043 455.001 253.543 465.001 240.543 468.003C222.655 469.678 175.178 468.003 147.543 468.003C117.506 468.003 78.0422 468.001 60.5422 468.001C47.5409 466 43.5409 455.5 44.0409 450C48.5409 450 93.1428 450.003 147.543 450.003C201.943 450.003 251.543 450.503 256.043 450.503Z" fill="#C2A07D"/>
<path d="M229 272.51C229 277.068 227.114 287.203 217.304 290.246C203.807 291.943 167.982 290.246 147.13 290.246C124.465 290.246 94.687 290.244 81.4821 290.244C71.6718 288.216 68.6536 277.574 69.0309 272C72.4264 272 106.081 272.003 147.13 272.003C188.178 272.003 225.604 272.51 229 272.51Z" fill="#C2A07D"/>
<line x1="79" y1="132.5" x2="239" y2="132.5" stroke="#C2A07D" stroke-width="19"/>
<path d="M220.689 105.931V141.241H176.551V114.759H123.585V141.241H79.4467V105.931H44.1367V150.069L70.6197 185.379H229.516L255.999 150.069V105.931H220.689Z" fill="#E4C39A"/>
<path d="M215.667 216H82.3332C74.9669 216 69 208.168 69 198.5C69 188.832 74.9669 181 82.3332 181H215.667C223.033 181 229 188.832 229 198.5C229 208.168 223.033 216 215.667 216Z" fill="#F3D6B9"/>
<path d="M229 198.51C229 203.068 227.114 213.203 217.304 216.246C203.807 217.943 167.982 216.246 147.13 216.246C124.465 216.246 94.687 216.244 81.4821 216.244C71.6718 214.216 68.6536 203.574 69.0309 198C72.4264 198 106.081 198.003 147.13 198.003C188.178 198.003 225.604 198.51 229 198.51Z" fill="#C2A07D"/>
</svg>
