<svg width="495" height="590" viewBox="0 0 495 590" fill="none" xmlns="http://www.w3.org/2000/svg">
<path d="M138.327 384.587H66.1562V420.672H138.327V384.587Z" fill="#E4C39A"/>
<circle cx="103.215" cy="316.844" r="54.8443" fill="#E4C39A"/>
<path d="M138.327 443.754V432.7H66.1559V443.754C66.1559 456.348 64.1229 468.863 60.1414 480.814C56.1599 492.765 54.127 499.266 54.127 511.859V540.956H150.354V511.859C150.354 499.266 148.321 492.764 144.339 480.814C140.359 468.863 138.327 456.348 138.327 443.754Z" fill="#E4C39A"/>
<path d="M192.455 589.07H12.0283C5.38292 589.07 0 583.687 0 577.042V571.027C0 564.382 5.38292 558.999 12.0283 558.999H192.455C199.1 558.999 204.483 564.382 204.483 571.027V577.042C204.483 583.687 199.1 589.07 192.455 589.07Z" fill="#E4C39A"/>
<path d="M156.369 366.544H48.1133V390.601H156.369V366.544Z" fill="#F3D6B9"/>
<path d="M156.369 414.657H48.1133V438.714H156.369V414.657Z" fill="#F3D6B9"/>
<path d="M162.383 558.998H42.0986C35.4532 558.998 30.0703 553.615 30.0703 546.97C30.0703 540.324 35.4532 534.941 42.0986 534.941H162.383C169.028 534.941 174.411 540.324 174.411 546.97C174.411 553.615 169.028 558.998 162.383 558.998Z" fill="#F3D6B9"/>
<path d="M174.441 547.172C174.441 550.236 172.737 557.049 163.88 559.094C151.693 560.236 119.348 559.094 100.52 559.094C80.0561 559.094 53.1694 559.093 41.2467 559.093C32.389 557.73 29.6638 550.576 30.0044 546.829C33.0703 546.829 63.4574 546.831 100.52 546.831C137.582 546.831 171.375 547.172 174.441 547.172Z" fill="#C2A07D"/>
<line x1="48" y1="433.003" x2="156.35" y2="433.003" stroke="#C2A07D" stroke-width="11"/>
<line x1="48.2405" y1="385.5" x2="156.29" y2="385.312" stroke="#C2A07D" stroke-width="11"/>
<path d="M397.035 226.932H291.104V279.898H397.035V226.932Z" fill="#7B7C7E"/>
<path d="M397 271.397H290V235.073C290 195.994 260.905 149.065 243.841 129.859C236.346 122.344 223.669 114.829 225.113 101.051C227.109 82.012 245.091 78.0876 253.831 78.5051C262.571 78.9226 275.057 91.0305 285.045 91.0305C295.034 91.0305 309.184 81.0102 315.011 76C317.508 78.5051 331.243 91.0305 348.723 91.0305C360.709 91.0305 374.943 81.0102 378.688 76C384.931 83.5153 398.269 91.0305 409.903 91.0305C421.537 91.0305 429.878 79.7576 438.62 79.7576C472.581 80.7597 470.251 103.556 464.84 114.829C420.893 155.524 403.507 201.883 398.5 235.073C396.11 250.916 397 262.544 397 271.397Z" fill="#7B7C7E"/>
<path d="M397.035 313.778V297.553H291.103V313.778C291.103 332.263 288.119 350.633 282.275 368.174C276.431 385.715 273.447 395.257 273.447 413.742V456.45H414.688V413.742C414.688 395.257 411.704 385.714 405.86 368.174C400.018 350.633 397.035 332.263 397.035 313.778Z" fill="#7B7C7E"/>
<path d="M476.483 527.07H211.655C201.901 527.07 194 519.169 194 509.415V500.587C194 490.833 201.901 482.932 211.655 482.932H476.483C486.237 482.932 494.138 490.833 494.138 500.587V509.415C494.138 519.169 486.237 527.07 476.483 527.07Z" fill="#7B7C7E"/>
<path d="M423.516 200.448H264.619V235.758H423.516V200.448Z" fill="#7B7C7E"/>
<path d="M423.516 271.069H264.619V306.379H423.516V271.069Z" fill="#7B7C7E"/>
<path d="M432.344 482.931H255.792C246.038 482.931 238.137 475.03 238.137 465.276C238.137 455.522 246.038 447.621 255.792 447.621H432.344C442.098 447.621 449.999 455.522 449.999 465.276C449.999 475.03 442.098 482.931 432.344 482.931Z" fill="#7B7C7E"/>
<path d="M450.043 465.572C450.043 470.07 447.543 480.07 434.543 483.072C416.655 484.747 369.178 483.072 341.543 483.072C311.506 483.072 272.042 483.07 254.542 483.07C241.541 481.069 237.541 470.569 238.041 465.069C242.541 465.069 287.143 465.072 341.543 465.072C395.943 465.072 445.543 465.572 450.043 465.572Z" fill="#7B7C7E"/>
<line x1="264" y1="296.9" x2="424" y2="296.9" stroke="white" stroke-width="19"/>
<line x1="263" y1="226.569" x2="423.6" y2="226.569" stroke="white" stroke-width="19"/>
<circle cx="346.5" cy="38.5" r="38.5" fill="#7B7C7E"/>
</svg>
