<svg width="205" height="328" viewBox="0 0 205 328" fill="none" xmlns="http://www.w3.org/2000/svg">
<path d="M138.327 122.587H66.1562V158.672H138.327V122.587Z" fill="#E4C39A"/>
<circle cx="103.215" cy="54.8443" r="54.8443" fill="#E4C39A"/>
<path d="M138.327 181.754V170.7H66.1559V181.754C66.1559 194.348 64.1229 206.863 60.1414 218.814C56.1599 230.765 54.127 237.266 54.127 249.859V278.956H150.354V249.859C150.354 237.266 148.321 230.764 144.339 218.814C140.359 206.863 138.327 194.348 138.327 181.754Z" fill="#E4C39A"/>
<path d="M192.455 327.07H12.0283C5.38292 327.07 0 321.687 0 315.042V309.027C0 302.382 5.38292 296.999 12.0283 296.999H192.455C199.1 296.999 204.483 302.382 204.483 309.027V315.042C204.483 321.687 199.1 327.07 192.455 327.07Z" fill="#E4C39A"/>
<path d="M156.369 104.544H48.1133V128.601H156.369V104.544Z" fill="#F3D6B9"/>
<path d="M156.369 152.657H48.1133V176.714H156.369V152.657Z" fill="#F3D6B9"/>
<path d="M162.383 296.998H42.0986C35.4532 296.998 30.0703 291.615 30.0703 284.97C30.0703 278.324 35.4532 272.941 42.0986 272.941H162.383C169.028 272.941 174.411 278.324 174.411 284.97C174.411 291.615 169.028 296.998 162.383 296.998Z" fill="#F3D6B9"/>
<path d="M174.441 285.172C174.441 288.236 172.737 295.049 163.88 297.094C151.693 298.236 119.348 297.094 100.52 297.094C80.0561 297.094 53.1694 297.093 41.2467 297.093C32.389 295.73 29.6638 288.576 30.0044 284.829C33.0703 284.829 63.4574 284.831 100.52 284.831C137.582 284.831 171.375 285.172 174.441 285.172Z" fill="#C2A07D"/>
<line x1="48" y1="171.003" x2="156.35" y2="171.003" stroke="#C2A07D" stroke-width="11"/>
<line x1="48.2405" y1="123.5" x2="156.29" y2="123.312" stroke="#C2A07D" stroke-width="11"/>
</svg>
